<?xml version="1.0" encoding="UTF-8" standalone="no"?>
<!-- Created with Inkscape (http://www.inkscape.org/) -->

<svg
   width="14in"
   height="8.5in"
   viewBox="0 0 56 34"
   version="1.1"
   id="svg658"
   xml:space="preserve"
   inkscape:version="1.2.2 (b0a8486541, 2022-12-01)"
   sodipodi:docname="Regions_Heel_2.svg"
   inkscape:export-filename="Regions_Heel_2.png"
   inkscape:export-xdpi="96"
   inkscape:export-ydpi="96"
   xmlns:inkscape="http://www.inkscape.org/namespaces/inkscape"
   xmlns:sodipodi="http://sodipodi.sourceforge.net/DTD/sodipodi-0.dtd"
   xmlns="http://www.w3.org/2000/svg"
   xmlns:svg="http://www.w3.org/2000/svg"><sodipodi:namedview
     id="namedview660"
     pagecolor="#ffffff"
     bordercolor="#000000"
     borderopacity="0.25"
     inkscape:showpageshadow="2"
     inkscape:pageopacity="0.0"
     inkscape:pagecheckerboard="0"
     inkscape:deskcolor="#d1d1d1"
     inkscape:document-units="in"
     showgrid="true"
     inkscape:zoom="1.2938725"
     inkscape:cx="537.92008"
     inkscape:cy="558.78767"
     inkscape:window-width="2256"
     inkscape:window-height="1445"
     inkscape:window-x="0"
     inkscape:window-y="0"
     inkscape:window-maximized="1"
     inkscape:current-layer="svg658"><inkscape:grid
       type="xygrid"
       id="grid779"
       units="in"
       spacingx="0.2"
       originx="0"
       originy="0"
       spacingy="0.2" /></sodipodi:namedview><defs
     id="defs655" /><path
     id="rect4561"
     style="fill:#ff3c07;fill-opacity:1;stroke-width:0.314961"
     d="M 11.200033 0 L 11.200033 14 C 11.200033 14 10.799967 16.600001 10.799967 18 C 10.799967 19.4 11.000033 20.800001 11.200033 22 C 11.400032 23.199999 12 24.799967 12 24.799967 L 12 34 L 25.399984 34 L 25.399984 0 L 11.200033 0 z "
     inkscape:label="Middle" /><path
     style="fill:#07d4ff;fill-opacity:1;stroke-width:0.314961"
     d="m 12.000001,24.800002 c 0,0 -0.6,-1.6 -0.8,-2.8 -0.2,-1.2 -0.4,-2.6 -0.4,-4.000001 0,-1.4 0.4,-4 0.4,-4 L 11.2,0 H 0 v 34 h 12 z"
     id="path4336"
     sodipodi:nodetypes="csscccccc"
     inkscape:label="Heel" /><path
     id="path4450"
     style="fill:#00da42;fill-opacity:1;stroke-width:0.314961"
     d="M 25.399984 0 L 25.399984 14.399984 L 25.399984 19.200033 L 25.399984 34 C 36.599973 34 48.871424 34.420905 56 34 C 56.4 33.400002 56.2 0.5999984 56 0 L 25.399984 0 z M 36.200033 9.7999674 C 38.200031 9.7999674 40.200003 10.199968 43 10.799967 C 45.799998 11.399967 51.200017 12.600033 51.600016 13.200033 C 52.000016 13.800032 51.800016 13.800033 51.600016 14.200033 C 51.400016 14.600032 48.999982 16.399985 47.399984 17.399984 C 45.799985 18.399983 41.999998 20.599985 40 21.399984 C 38.000002 22.199983 34.800031 23.8 33.200033 24 C 31.600034 24.2 30.400015 24.4 29.600016 24 C 28.800017 23.6 28.000016 22.799982 27.600016 21.399984 C 27.200017 19.999985 27.600016 16.399984 27.600016 16.399984 C 27.600016 16.399984 27.999968 13.999966 28.799967 12.799967 C 29.599967 11.599969 31 10.2 32 10 C 32.999999 9.8 34.200035 9.7999674 36.200033 9.7999674 z "
     inkscape:label="Outer Toe" /><path
     style="fill:#aeda00;fill-opacity:1;stroke-width:0.314961"
     d="m 27.600002,16.400001 c 0,0 0.4,-2.4 1.2,-3.6 0.8,-1.2 2.2,-2.6 3.200001,-2.8 1,-0.2000002 2.2,-0.2000002 4.2,-0.2000002 2,0 4,0.4000002 6.8,1.0000002 2.800001,0.6 8.200001,1.8 8.600001,2.4 0.4,0.6 0.2,0.6 0,1 -0.2,0.4 -2.6,2.2 -4.2,3.2 -1.6,1 -5.400001,3.200001 -7.400001,4.000001 -2,0.8 -5.2,2.4 -6.8,2.6 -1.6,0.2 -2.800001,0.4 -3.600001,0 -0.8,-0.4 -1.6,-1.2 -2,-2.6 -0.4,-1.4 0,-5.000001 0,-5.000001 z"
     id="path398"
     inkscape:label="Toe" /></svg>
